<svg class="icon" viewBox="0 0 1027 1024" version="1.1" xmlns="http://www.w3.org/2000/svg"
     id="mx_n_1714573912592" width="128" height="128">
  <path
    d="M760.448 684.416l101.376-43.328a8.256 8.256 0 0 0 4.864-8.64 8.128 8.128 0 0 0-7.04-7.04l-251.52-34.24a7.936 7.936 0 0 0-6.848 2.304 7.936 7.936 0 0 0-2.496 5.76v0.064l0.064 1.088 31.552 251.84a8.128 8.128 0 0 0 6.912 7.104 8.192 8.192 0 0 0 8.704-4.8l44.352-100.8 132.224 115.328c3.2 3.2 8.384 3.264 11.584 0.064l53.888-61.696a8.192 8.192 0 0 0 0.064-11.648l-127.68-111.36z"
    />
  <path
    d="M822.656 356.864H611.776V156.288C611.776 70.336 531.904 0 434.304 0H177.344C79.808 0 0 70.336 0 156.288v299.072c0 85.952 79.808 156.352 177.344 156.352h183.232v228.16C360.64 941.44 452.608 1024 565.696 1024h256.96c113.088 0 205.12-82.56 205.12-184.064V540.8c0-101.44-92.096-183.936-205.12-183.936z m-638.784 47.808a8.064 8.064 0 0 1 4.928-8.64l101.248-43.328-127.744-111.36a8.32 8.32 0 0 1 0.128-11.648l53.888-61.632a8.192 8.192 0 0 1 11.584 0.064l132.224 115.264 44.288-100.8a8.192 8.192 0 1 1 15.68 2.304l25.984 207.168 5.632 44.736 0.064 1.024v0.064a8.256 8.256 0 0 1-9.344 8.064l-251.584-34.24a8.32 8.32 0 0 1-6.976-7.04z m788.48 435.264c0 70.976-67.2 128.704-149.76 128.704H565.696c-82.56 0-149.76-57.664-149.76-128.704V611.776h18.368c97.536 0 177.408-70.4 177.408-156.352V412.16h210.88c82.56 0 149.76 57.664 149.76 128.64v299.136z"
    />
</svg>
