<svg class="icon" viewBox="0 0 1024 1024" version="1.1" xmlns="http://www.w3.org/2000/svg"
     width="128" height="128">
  <path
    d="M409.6 99.2c15.914667 0 28.8 12.885333 28.8 28.8v39.466667h147.2V128a28.8 28.8 0 1 1 57.6 0v39.466667H733.866667c34.773333 0 62.933333 28.16 62.933333 62.933333v546.133333c0 34.730667-28.16 62.933333-62.933333 62.933334H290.133333c-34.773333 0-62.933333-28.16-62.933333-62.933334V230.4c0-34.773333 28.16-62.933333 62.933333-62.933333h90.666667V128c0-15.914667 12.885333-28.8 28.8-28.8z m176 125.866667h-147.2V230.4a28.8 28.8 0 0 1-57.6 0v-5.333333H290.133333a5.333333 5.333333 0 0 0-5.333333 5.333333v546.133333c0 2.944 2.389333 5.333333 5.333333 5.333334h443.733334a5.333333 5.333333 0 0 0 5.333333-5.333334V230.4a5.333333 5.333333 0 0 0-5.333333-5.333333h-90.666667V230.4a28.8 28.8 0 1 1-57.6 0v-5.333333z"
  />
  <path
    d="M346.666667 384c0-15.914667 12.885333-28.8 28.8-28.8h273.066666a28.8 28.8 0 1 1 0 57.6H375.466667A28.8 28.8 0 0 1 346.666667 384zM346.666667 520.533333c0-15.914667 12.885333-28.8 28.8-28.8h204.8a28.8 28.8 0 1 1 0 57.6H375.466667a28.8 28.8 0 0 1-28.8-28.8zM375.466667 628.266667a28.8 28.8 0 1 0 0 57.6H512a28.8 28.8 0 1 0 0-57.6H375.466667z"
  />
</svg>
