<svg class="icon" viewBox="0 0 1024 1024" version="1.1" xmlns="http://www.w3.org/2000/svg" p-id="5364"
     width="128" height="128">
  <path
    d="M721.08032 357.13024c-17.12128-115.24096-89.98912-195.1744-209.89952-195.1744-121.48736 0-188.04736 78.37696-205.16864 195.1744h-12.47232c-127.71328 0-232.05888 104.3456-232.05888 232.05888S165.82656 821.248 293.53984 821.248h429.09696c127.71328 0 232.05888-104.3456 232.05888-232.05888-1.55648-127.6928-105.92256-232.05888-233.61536-232.05888z m-232.93952 199.45472c-1.18784 1.7408-3.15392 2.7648-5.26336 2.74432h-45.89568a6.434816 6.434816 0 0 0-6.43072 6.43072v158.78144a6.434816 6.434816 0 0 1-6.43072 6.43072h-48.90624a6.434816 6.434816 0 0 1-6.43072-6.43072v-158.76096a6.434816 6.434816 0 0 0-6.43072-6.43072h-45.89568c-2.10944 0.02048-4.096-1.024-5.28384-2.7648-7.20896-10.752-6.51264-26.07104 2.21184-35.88096l69.03808-77.53728c4.28032-5.09952 10.60864-8.04864 17.26464-8.04864s12.98432 2.94912 17.26464 8.04864l69.03808 77.53728c8.66304 9.8304 9.37984 25.14944 2.1504 35.88096z m217.23136 119.808l-44.032 49.4592a14.39744 14.39744 0 0 1-22.016 0l-44.01152-49.4592c-5.57056-6.2464-6.00064-16.03584-1.39264-22.87616 0.75776-1.10592 2.00704-1.76128 3.33824-1.76128h29.2864a4.096 4.096 0 0 0 4.096-4.096v-101.2736c0-2.27328 1.8432-4.11648 4.11648-4.11648h31.19104c2.27328 0 4.096 1.8432 4.096 4.11648v101.2736c0 2.27328 1.8432 4.096 4.11648 4.096h29.2864c1.3312 0 2.58048 0.65536 3.33824 1.76128 4.58752 6.84032 4.13696 16.62976-1.41312 22.87616z"
    />
</svg>
