<svg class="icon" viewBox="0 0 1024 1024" version="1.1" xmlns="http://www.w3.org/2000/svg"
     width="128" height="128">
  <path
    d="M835.986286 367.286857a648.301714 648.301714 0 0 0-76.873143-66.852571c-3.913143-2.925714-6.948571-4.937143-10.386286-7.424 48.64-16.237714 82.651429-55.076571 82.651429-101.083429 0-61.915429-60.525714-109.275429-132.388572-109.275428-16.566857 0-31.817143 2.998857-45.458285 8.045714-6.326857 2.340571-11.081143 4.754286-14.994286 6.948571-2.56 1.024-7.899429-0.109714-9.362286-1.901714l-0.073143 0.036571a142.921143 142.921143 0 0 0-25.782857-28.013714C580.461714 48.493714 553.362286 36.571429 522.459429 36.571429c-30.902857 0-58.002286 11.922286-80.859429 31.195428-11.739429 9.910857-19.821714 19.529143-25.307429 27.428572l-0.036571-0.036572c-2.084571 2.377143-7.497143 3.657143-9.362286 2.742857a100.534857 100.534857 0 0 0-15.542857-7.204571 130.450286 130.450286 0 0 0-45.421714-8.045714c-71.862857 0-132.388571 47.36-132.388572 109.275428 0 39.350857 24.978286 73.362286 62.537143 92.635429a600.795429 600.795429 0 0 0-88.758857 74.642285C116.297143 432.201143 73.142857 515.657143 73.142857 608.329143 73.142857 865.243429 270.262857 987.428571 507.757714 987.428571c99.474286 0 196.790857-19.273143 275.529143-64.804571C890.075429 860.818286 950.857143 757.028571 950.857143 608.329143c0-87.113143-43.446857-167.972571-114.870857-241.005714z m-328.228572 562.761143c-209.042286 0-375.771429-103.350857-375.771428-321.718857 0-75.849143 36.425143-146.358857 98.011428-209.590857A535.076571 535.076571 0 0 1 321.828571 323.657143c3.949714-2.523429 6.656-4.169143 7.899429-4.864 33.170286-21.321143 30.025143-58.806857-2.413714-74.825143l0.073143-0.365714-0.182858-0.073143-0.365714-0.182857-1.170286-0.512-1.536-0.731429-0.841142-0.365714-0.658286-0.219429-0.109714-0.073143-3.437715-1.243428c-28.672-8.155429-46.665143-27.867429-46.665143-48.274286 0-27.099429 31.670857-51.931429 73.545143-51.931428 8.996571 0 17.261714 1.645714 24.576 4.388571 4.022857 1.462857 6.509714 2.742857 7.094857 3.145143l3.584 2.011428c26.624 12.580571 60.891429 4.644571 79.945143-17.298285l2.486857-3.291429c2.486857-3.84 8.192-10.788571 16.457143-17.773714 13.019429-10.971429 27.245714-17.225143 42.422857-17.225143 15.104 0 29.330286 6.217143 42.349715 17.225143 8.265143 6.948571 14.006857 13.897143 16.457143 17.773714l1.974857 2.706286c18.578286 22.564571 53.174857 30.061714 79.872 18.139428l4.169143-2.267428c0.585143-0.365714 3.072-1.682286 7.131428-3.181714 7.277714-2.706286 15.542857-4.315429 24.502857-4.315429 41.910857 0 73.581714 24.795429 73.581715 51.931429 0 20.370286-17.993143 40.118857-46.665143 48.274285l-4.205715 1.499429a94.171429 94.171429 0 0 1-15.725714 5.961143c-41.289143 12.397714-48.274286 53.284571-14.884571 76.141714a523.958857 523.958857 0 0 1 32.438857 22.235429 591.250286 591.250286 0 0 1 69.924571 60.818285c61.988571 63.378286 98.596571 131.584 98.596572 201.435429 0 229.668571-159.158857 321.718857-384.256 321.718857z m122.587429-337.92c13.531429 0 24.502857-10.934857 24.502857-24.356571 0-13.458286-10.971429-24.356571-24.502857-24.356572h-100.205714l93.001142-92.306286a24.210286 24.210286 0 0 0 0-34.450285 24.649143 24.649143 0 0 0-34.669714 0l-80.713143 80.164571-80.749714-80.164571a24.649143 24.649143 0 0 0-34.669714 0 24.210286 24.210286 0 0 0 0 34.413714l93.001143 92.342857h-100.205715c-13.531429 0-24.502857 10.898286-24.502857 24.356572 0 13.421714 10.971429 24.32 24.502857 24.32h98.084572v24.356571h-98.048c-13.531429 0-24.502857 10.898286-24.502857 24.356571 0 13.421714 10.971429 24.32 24.502857 24.32h98.048v70.144c0 10.24 10.971429 18.614857 24.502857 18.614858 13.568 0 24.539429-8.338286 24.539428-18.651429v-70.107429h98.084572c13.531429 0 24.502857-10.898286 24.502857-24.32 0-13.458286-10.971429-24.356571-24.502857-24.356571h-98.084572v-24.356571h98.084572z"
  />
</svg>
