<svg class="icon" viewBox="0 0 1024 1024" version="1.1" xmlns="http://www.w3.org/2000/svg"
     width="128" height="128">
  <path
    d="M911.355 82h-798.709c-16.918 0-30.636 13.699-30.636 30.793v214.998h859.98V112.793c0.001-17.075-13.716-30.793-30.635-30.793z m-707.046 161.266c-21.258 0-38.456-17.198-38.456-38.459 0-21.205 17.198-38.404 38.456-38.404 21.205 0 38.404 17.199 38.404 38.404 0 21.261-17.199 38.459-38.404 38.459z m-122.299 667.959c0 17.059 13.718 30.775 30.636 30.775h798.569c16.953 0 30.635-13.717 30.635-30.775v-214.979h-859.84v214.979z m122.299-130.471c21.205 0 38.404 17.198 38.404 38.422 0 21.24-17.199 38.439-38.404 38.439-21.258 0-38.456-17.199-38.456-38.439 0-21.224 17.198-38.422 38.456-38.422z m-122.299-145.919h859.98v-245.649h-859.98v245.649z m122.299-161.283c21.205 0 38.404 17.217 38.404 38.439 0 21.242-17.199 38.423-38.404 38.423-21.258 0-38.456-17.181-38.456-38.423 0-21.222 17.198-38.439 38.456-38.439z"/>
</svg>
