<svg class="icon" viewBox="0 0 1820 1024" version="1.1" xmlns="http://www.w3.org/2000/svg" p-id="4384"
     id="mx_n_1708304312804" width="128" height="128">
  <path
    d="M1292.515556 218.453333v-88.746666c0-30.151111-24.462222-54.613333-54.613334-54.613334H582.542222c-30.151111 0-54.613333 24.462222-54.613333 54.613334v88.746666c0 16.308148 7.205926 30.90963 18.488889 40.96-11.377778 10.05037-18.488889 24.651852-18.488889 40.96v88.746667c0 16.308148 7.205926 30.90963 18.488889 40.96-11.377778 10.05037-18.488889 24.651852-18.488889 40.96v81.92c0 16.308148 7.205926 30.90963 18.488889 40.96-11.377778 10.05037-18.488889 24.651852-18.488889 40.96v88.746667c0 16.308148 7.205926 30.90963 18.488889 40.96-11.377778 10.05037-18.488889 24.651852-18.488889 40.96v88.746666c0 30.151111 24.462222 54.613333 54.613333 54.613334h655.36c30.151111 0 54.613333-24.462222 54.613334-54.613334v-88.746666c0-16.308148-7.205926-30.90963-18.488889-40.96 11.377778-10.05037 18.488889-24.651852 18.488889-40.96v-88.746667c0-16.308148-7.205926-30.90963-18.488889-40.96 11.377778-10.05037 18.488889-24.651852 18.488889-40.96v-81.92c0-16.308148-7.205926-30.90963-18.488889-40.96 11.377778-10.05037 18.488889-24.651852 18.488889-40.96v-88.746667c0-16.308148-7.205926-30.90963-18.488889-40.96 11.282963-10.05037 18.488889-24.651852 18.488889-40.96z m-27.306667 587.093334v88.746666c0 15.075556-12.231111 27.306667-27.306667 27.306667H582.542222c-15.075556 0-27.306667-12.231111-27.306666-27.306667v-88.746666c0-15.075556 12.231111-27.306667 27.306666-27.306667h655.36c15.075556 0 27.306667 12.231111 27.306667 27.306667z m0-170.666667v88.746667c0 15.075556-12.231111 27.306667-27.306667 27.306666H582.542222c-15.075556 0-27.306667-12.231111-27.306666-27.306666v-88.746667c0-15.075556 12.231111-27.306667 27.306666-27.306667h655.36c15.075556 0 27.306667 12.231111 27.306667 27.306667z m0-163.84v81.92c0 15.075556-12.231111 27.306667-27.306667 27.306667H582.542222c-15.075556 0-27.306667-12.231111-27.306666-27.306667v-81.92c0-15.075556 12.231111-27.306667 27.306666-27.306667h655.36c15.075556 0 27.306667 12.231111 27.306667 27.306667z m0-170.666667v88.746667c0 15.075556-12.231111 27.306667-27.306667 27.306667H582.542222c-15.075556 0-27.306667-12.231111-27.306666-27.306667v-88.746667c0-15.075556 12.231111-27.306667 27.306666-27.306666h655.36c15.075556 0 27.306667 12.231111 27.306667 27.306666z m-682.666667-54.613333c-15.075556 0-27.306667-12.231111-27.306666-27.306667v-88.746666c0-15.075556 12.231111-27.306667 27.306666-27.306667h655.36c15.075556 0 27.306667 12.231111 27.306667 27.306667v88.746666c0 15.075556-12.231111 27.306667-27.306667 27.306667H582.542222z"
  />
  <path
    d="M671.288889 163.84h-6.826667c-7.585185 0-13.653333 6.162963-13.653333 13.653333 0 7.585185 6.162963 13.653333 13.653333 13.653334h6.826667c7.585185 0 13.653333-6.068148 13.653333-13.653334s-6.068148-13.653333-13.653333-13.653333zM664.462222 361.813333h6.826667c7.585185 0 13.653333-6.068148 13.653333-13.653333s-6.068148-13.653333-13.653333-13.653333h-6.826667c-7.585185 0-13.653333 6.162963-13.653333 13.653333s6.162963 13.653333 13.653333 13.653333zM664.462222 525.653333h6.826667c7.585185 0 13.653333-6.068148 13.653333-13.653333s-6.068148-13.653333-13.653333-13.653333h-6.826667c-7.585185 0-13.653333 6.068148-13.653333 13.653333s6.162963 13.653333 13.653333 13.653333zM664.462222 696.32h6.826667c7.585185 0 13.653333-6.068148 13.653333-13.653333s-6.068148-13.653333-13.653333-13.653334h-6.826667c-7.585185 0-13.653333 6.068148-13.653333 13.653334s6.162963 13.653333 13.653333 13.653333zM664.462222 866.986667h6.826667c7.585185 0 13.653333-6.162963 13.653333-13.653334 0-7.585185-6.068148-13.653333-13.653333-13.653333h-6.826667c-7.585185 0-13.653333 6.068148-13.653333 13.653333s6.162963 13.653333 13.653333 13.653334zM1149.155556 163.84H732.728889c-7.585185 0-13.653333 6.162963-13.653333 13.653333 0 7.585185 6.068148 13.653333 13.653333 13.653334H1149.155556c7.585185 0 13.653333-6.068148 13.653333-13.653334s-6.068148-13.653333-13.653333-13.653333zM732.728889 361.813333H1149.155556c7.585185 0 13.653333-6.068148 13.653333-13.653333s-6.068148-13.653333-13.653333-13.653333H732.728889c-7.585185 0-13.653333 6.162963-13.653333 13.653333s6.068148 13.653333 13.653333 13.653333zM732.728889 525.653333H1149.155556c7.585185 0 13.653333-6.068148 13.653333-13.653333s-6.068148-13.653333-13.653333-13.653333H732.728889c-7.585185 0-13.653333 6.068148-13.653333 13.653333s6.068148 13.653333 13.653333 13.653333zM732.728889 696.32H1149.155556c7.585185 0 13.653333-6.068148 13.653333-13.653333s-6.068148-13.653333-13.653333-13.653334H732.728889c-7.585185 0-13.653333 6.068148-13.653333 13.653334s6.068148 13.653333 13.653333 13.653333zM732.728889 866.986667H1149.155556c7.585185 0 13.653333-6.162963 13.653333-13.653334 0-7.585185-6.068148-13.653333-13.653333-13.653333H732.728889c-7.585185 0-13.653333 6.068148-13.653333 13.653333s6.068148 13.653333 13.653333 13.653334z"
  />
</svg>
