<svg class="icon" viewBox="0 0 1024 1024" version="1.1" xmlns="http://www.w3.org/2000/svg"
     width="128" height="128">
  <path
    d="M124.95 491.83c-1.43 0-2.87-0.1-4.32-0.29-17.51-2.36-29.8-18.48-27.43-35.99 11.35-84.07 47.36-162.06 104.15-225.53 58.11-64.95 133.84-109.74 219.01-129.54 49.47-11.5 99.88-14.05 149.84-7.59 48.25 6.25 94.77 20.71 138.26 42.98 87.58 44.86 157.07 119.1 195.68 209.05 6.97 16.24-0.54 35.06-16.79 42.03-16.24 6.97-35.06-0.54-42.03-16.79-68.46-159.52-241.09-246.72-410.47-207.35-144.22 33.52-254.42 154.6-274.22 301.29-2.18 16.07-15.91 27.73-31.68 27.73z"
    />
  <path
    d="M933.17 503.07c-54.8-57.57-134.61-123.93-203.14-156.88l132.48-7.74 96.85-90.69c-23.3 72.38-30.19 175.94-26.19 255.31zM511.72 934.58c-17.99 0-35.97-1.16-53.9-3.48-48.25-6.25-94.77-20.71-138.26-42.98-87.58-44.86-157.07-119.1-195.68-209.05-6.97-16.24 0.54-35.06 16.79-42.03 16.24-6.97 35.06 0.54 42.03 16.79 68.46 159.52 241.09 246.72 410.47 207.35 144.22-33.52 254.42-154.6 274.22-301.29 2.36-17.52 18.48-29.8 35.99-27.43 17.51 2.36 29.8 18.48 27.43 35.99-11.35 84.07-47.36 162.06-104.15 225.53-58.11 64.95-133.84 109.74-219.01 129.54-31.71 7.37-63.82 11.06-95.93 11.06z"
    />
  <path
    d="M90.83 520.93c54.8 57.57 134.61 123.93 203.14 156.88l-132.48 7.74-96.85 90.69c23.3-72.38 30.19-175.94 26.19-255.31z"
    />
  <path
    d="M475.06 658.48v-60.55h-72.27c-15.63 0-23.44-7.14-23.44-21.48 1.28-11.72 9.09-18.86 23.44-21.48h72.27v-33.2h-72.27c-15.63 0-23.44-7.14-23.44-21.48 1.28-11.72 9.09-18.86 23.44-21.48h41.02l-62.5-87.89c-6.53-5.19-9.12-12.36-7.81-21.48 1.28-22.13 13.67-34.48 37.11-37.11 11.72 1.31 21.48 6.53 29.3 15.63l72.27 103.52 72.27-103.52c6.5-9.09 16.27-14.31 29.3-15.63 22.13 2.62 34.48 14.98 37.11 37.11 0 9.13-2.62 16.3-7.81 21.48l-62.5 87.89h41.02c13 2.62 20.81 9.77 23.44 21.48-1.31 14.34-9.12 21.48-23.44 21.48H549.3v33.2h72.27c13 2.62 20.81 9.77 23.44 21.48-1.31 14.34-9.12 21.48-23.44 21.48H549.3v60.55c-1.31 22.16-13.67 33.2-37.11 33.2-24.77 0.01-37.13-11.04-37.13-33.2z"
    />
</svg>
