<svg class="icon" viewBox="0 0 1024 1024" version="1.1" xmlns="http://www.w3.org/2000/svg"
     width="128" height="128">
  <path
    d="M96 320a32 32 0 0 1 32 32v512a32 32 0 1 1-64 0v-512a32 32 0 0 1 32-32zM832 320a128 128 0 0 1 128 128v448H256a64 64 0 0 1-64-64V384a64 64 0 0 1 64-64h576z m0 64H256v448h640V448a64 64 0 0 0-49.28-62.336l-7.232-1.28L832 384z m-96 256a32 32 0 1 1 0 64h-320a32 32 0 1 1 0-64h320z m0-128a32 32 0 1 1 0 64h-320a32 32 0 0 1 0-64h320z m-3.2-348.48l3.2 7.04 38.4 102.72a32 32 0 0 1-57.408 27.84l-2.496-5.248-38.4-102.592-434.688 125.312a32 32 0 0 1-24.832-58.688l5.312-2.24 434.688-125.376a64 64 0 0 1 76.16 31.232z"
    />
</svg>
