<svg class="icon" viewBox="0 0 1024 1024" version="1.1" xmlns="http://www.w3.org/2000/svg"
     width="128" height="128">
  <path
    d="M512 853.333333c-187.733333 0-341.333333-153.6-341.333333-341.333333S324.266667 170.666667 512 170.666667h85.333333c12.8 0 21.333333 8.533333 21.333334 21.333333s-8.533333 21.333333-21.333334 21.333333h-85.333333c-164.266667 0-298.666667 134.4-298.666667 298.666667s134.4 298.666667 298.666667 298.666667 298.666667-134.4 298.666667-298.666667v-85.333333c0-12.8 8.533333-21.333333 21.333333-21.333334s21.333333 8.533333 21.333333 21.333334v85.333333c0 187.733333-153.6 341.333333-341.333333 341.333333zM832 343.466667c-12.8 0-21.333333-8.533333-21.333333-21.333334V213.333333h-104.533334c-12.8 0-21.333333-8.533333-21.333333-21.333333s8.533333-21.333333 21.333333-21.333333H853.333333v151.466666c0 10.666667-8.533333 21.333333-21.333333 21.333334z"
    />
  <path
    d="M512 497.066667l-119.466667-96c-8.533333-6.4-10.666667-21.333333-4.266666-29.866667 6.4-8.533333 21.333333-10.666667 29.866666-4.266667l93.866667 74.666667 93.866667-74.666667c8.533333-6.4 23.466667-6.4 29.866666 4.266667 6.4 8.533333 6.4 23.466667-4.266666 29.866667L512 497.066667z"
    />
  <path
    d="M618.666667 533.333333H405.333333c-12.8 0-21.333333-8.533333-21.333333-21.333333s8.533333-21.333333 21.333333-21.333333h213.333334c12.8 0 21.333333 8.533333 21.333333 21.333333s-8.533333 21.333333-21.333333 21.333333zM618.666667 618.666667H405.333333c-12.8 0-21.333333-8.533333-21.333333-21.333334s8.533333-21.333333 21.333333-21.333333h213.333334c12.8 0 21.333333 8.533333 21.333333 21.333333s-8.533333 21.333333-21.333333 21.333334z"
    />
  <path
    d="M512 704c-12.8 0-21.333333-8.533333-21.333333-21.333333V469.333333c0-12.8 8.533333-21.333333 21.333333-21.333333s21.333333 8.533333 21.333333 21.333333v213.333334c0 12.8-8.533333 21.333333-21.333333 21.333333z"
    />
</svg>
