<svg class="icon" viewBox="0 0 1070 1024" version="1.1" xmlns="http://www.w3.org/2000/svg"
     width="128" height="128">
  <path
    d="M739.30648 107.002919C699.85289 42.890835 629.165207 0 548.464682 0a224.168126 224.168126 0 0 0-186.358436 99.829539C156.469352 137.340339 0 317.422067 0 533.669586v48.868651c0 243.446585 198.015178 441.461763 441.461763 441.461763h187.255108c243.446585 0 441.461763-198.015178 441.461763-441.461763v-48.868651c0-205.188558-140.927029-377.349679-330.872154-426.666667zM548.464682 62.318739a162.148278 162.148278 0 0 1 161.998832 161.998833 159.009924 159.009924 0 0 1-7.17338 47.374197H393.788675A161.550496 161.550496 0 0 1 548.464682 62.318739z m459.395213 520.219498c0 209.074139-170.068885 379.143024-379.143024 379.143024H441.461763c-209.074139 0-379.143024-170.068885-379.143024-379.143024v-48.868651c0-170.666667 113.279626-315.180385 268.702861-362.554583a217.443082 217.443082 0 0 0-1.494455 100.576766h-31.532983a29.590193 29.590193 0 0 0 0 59.329831H792.060712a29.590193 29.590193 0 0 0 0-59.329831h-24.509048a219.684764 219.684764 0 0 0 0.896672-89.816696c140.030356 55.743141 239.411559 192.186807 239.411559 351.794513z m-354.185639 24.957385a29.590193 29.590193 0 0 0 0-59.329831h-62.61763l59.479276-59.479276a29.590193 29.590193 0 0 0-41.844717-41.994162L535.014594 520.368943 461.636894 446.841798a29.590193 29.590193 0 1 0-41.994162 41.994162l59.479276 59.479276h-62.61763a29.590193 29.590193 0 0 0 0 59.329831h88.920024v59.329831h-88.920024a29.590193 29.590193 0 0 0 0 59.329831h88.920024v79.056625a29.590193 29.590193 0 0 0 59.32983 0v-79.206071h88.920024a29.590193 29.590193 0 0 0 0-59.329831h-88.920024v-59.32983z m0 0"
    />
</svg>
