<svg class="icon" viewBox="0 0 1024 1024" version="1.1" xmlns="http://www.w3.org/2000/svg"
     width="128" height="128">
  <path
    d="M517.312 96.64l5.952 1.728 234.624 95.488h41.344v16.832l138.496 56.384a32 32 0 0 1-18.624 60.992l-5.504-1.728-114.432-46.528V864a32 32 0 0 1-26.24 31.488l-5.76 0.512h-512a32 32 0 0 1-31.424-26.24l-0.512-5.76V280l-113.6 46.336a32 32 0 0 1-29.312-56.576l5.12-2.688 137.728-56.192v-12.992h31.872L499.2 98.368a32 32 0 0 1 18.176-1.792zM511.36 162.56L287.168 253.952 287.232 832h448V253.696l-224-91.136z m2.88 171.648c16.576 0 30.016 13.44 30.016 29.952v13.696A102.592 102.592 0 0 1 619.52 476.608a30.016 30.016 0 0 1-60.032 0 42.432 42.432 0 1 0-42.368 42.368l2.24 0.192 3.904 0.256c50.688 4.544 90.496 47.296 90.496 99.072 0 43.392-27.84 80.384-66.624 94.016v22.208a30.016 30.016 0 1 1-60.032 0v-20.416a99.712 99.712 0 0 1-72.384-95.808 30.016 30.016 0 0 1 59.968 0 39.552 39.552 0 1 0 39.552-39.488l-2.88-0.256-3.584-0.192A102.528 102.528 0 0 1 414.72 476.608c0-44.992 29.12-83.2 69.44-97.024l0.064-15.36c0-16.64 13.44-30.08 30.08-30.08z"
    />
</svg>
