<svg class="icon" viewBox="0 0 1024 1024" version="1.1" xmlns="http://www.w3.org/2000/svg"
     width="128" height="128">
  <path
    d="M614.4 153.6c-6.4-6.4-19.2-6.4-32 0L403.2 332.8 230.4 153.6c-6.4-6.4-19.2-6.4-32 0s-6.4 25.6 0 32l179.2 179.2H236.8c-12.8 0-25.6 6.4-25.6 19.2 0 12.8 6.4 19.2 19.2 19.2H384v83.2H236.8c-12.8 6.4-25.6 12.8-25.6 25.6s6.4 19.2 19.2 19.2H384V640c0 12.8 6.4 19.2 19.2 19.2 12.8 0 19.2-6.4 19.2-19.2V531.2H576c12.8 0 19.2-6.4 19.2-19.2 0-12.8-6.4-19.2-19.2-19.2H428.8V403.2H576c12.8 0 19.2-6.4 19.2-19.2 0-12.8-6.4-19.2-19.2-19.2H435.2l179.2-179.2c6.4-6.4 6.4-19.2 0-32z"
    />
  <path
    d="M428.8 979.2h-320c-38.4 0-64-25.6-64-64V108.8c0-38.4 25.6-64 64-64H704c38.4 0 64 25.6 64 64v556.8c0 12.8 6.4 19.2 19.2 19.2 12.8 0 19.2-6.4 19.2-19.2V108.8C812.8 44.8 761.6 0 704 0H108.8C44.8 0 0 44.8 0 108.8v812.8c0 57.6 44.8 102.4 108.8 102.4h320c12.8 0 19.2-6.4 19.2-19.2 0-12.8-6.4-25.6-19.2-25.6z"
    />
  <path
    d="M1017.6 838.4l-147.2-147.2c-6.4-6.4-25.6-6.4-32 0-6.4 6.4-6.4 19.2 0 25.6l108.8 108.8H492.8c-12.8 0-19.2 6.4-19.2 19.2 0 12.8 6.4 19.2 19.2 19.2h460.8l-108.8 108.8c-6.4 6.4-12.8 19.2 0 32 6.4 6.4 19.2 12.8 32 0l147.2-147.2s0-12.8-6.4-19.2z"
    />
</svg>
