<svg class="icon" viewBox="0 0 1197 1024" version="1.1" xmlns="http://www.w3.org/2000/svg"
     width="128" height="128">
  <path
    d="M178.635 771.013H53.287a53.137 53.137 0 0 1-39.492-88.745l38.346-42.53a53.137 53.137 0 0 1 39.492-17.58h1013.99a53.137 53.137 0 0 1 39.542 17.63l38.247 42.53a53.137 53.137 0 0 1-39.542 88.695H178.635z m0-231.324H53.485a53.137 53.137 0 0 1-39.441-88.794l38.097-42.181a53.137 53.137 0 0 1 39.442-17.53h1014.09a53.137 53.137 0 0 1 39.492 17.58l37.998 42.18a53.137 53.137 0 0 1-39.492 88.745H178.635z m0 484.311H53.485a53.137 53.137 0 0 1-39.441-88.794l38.097-42.182a53.137 53.137 0 0 1 39.442-17.53h1014.09a53.137 53.137 0 0 1 39.492 17.58l37.948 42.181A53.137 53.137 0 0 1 1143.62 1024H178.635z m839.638-726.64H53.237a53.137 53.137 0 0 1-39.492-88.745L185.905 17.58A53.137 53.137 0 0 1 225.399 0H971.51a53.137 53.137 0 0 1 39.492 17.58l172.11 191.035a53.137 53.137 0 0 1-39.491 88.744zM343.325 136.751h510.257c7.37 0 13.197-11.005 13.197-24.551s-5.826-24.9-13.197-24.9H343.325c-7.17 0-13.197 11.354-13.197 24.9s5.976 24.551 13.197 24.551z m-97.659 70.02c0 13.546 7.77 24.552 17.281 24.552H934.11c9.711 0 17.28-11.006 17.28-24.552s-7.569-24.9-17.28-24.9H262.897c-9.512 0-17.28 10.956-17.28 24.9z"
  />
</svg>
