<svg class="icon" viewBox="0 0 1024 1024" version="1.1" xmlns="http://www.w3.org/2000/svg"
     width="128" height="128">
  <path
    d="M352.768 916.48h-152.064c-34.304 0-76.8-32.256-76.8-58.368V132.608c0-29.696 23.552-53.248 54.784-53.248h689.664c11.264 0 32.256 0 32.256 53.248v540.672c0 18.432 15.36 33.28 33.792 33.28s33.792-14.848 33.792-33.28V133.12c0-75.264-37.376-119.296-99.84-119.296H178.688c-67.584 0-120.32 52.224-120.32 119.296v725.504c0 69.12 77.312 124.416 142.336 124.416h151.552c18.432 0 33.28-14.336 33.28-32.768 0-19.456-14.336-33.792-32.768-33.792z"
    />
  <path
    d="M729.088 198.656c-11.776-11.776-31.232-11.776-43.008 0l-164.864 164.864-164.352-164.864c-11.776-11.776-31.232-11.776-43.008 0-11.776 11.776-11.776 31.232 0 43.008l138.752 139.264h-115.2c-17.408 0-30.72 13.312-30.72 30.208 0 17.408 13.312 30.208 30.72 30.208h154.624V532.992h-154.624c-17.408 0-30.72 13.312-30.72 30.208 0 17.408 13.312 30.208 30.72 30.208h154.624V686.592c0 17.408 13.312 30.72 30.208 30.72 16.384 0 30.208-13.312 30.208-30.72v-92.672h152.576c17.408 0 30.72-13.312 30.72-30.208 0-17.408-13.312-30.208-30.72-30.208h-152.576v-91.648h152.576c17.408 0 30.72-13.312 30.72-30.208 0-16.384-13.312-30.208-30.72-30.208h-115.2l138.752-138.752c12.288-12.8 12.288-31.744 0.512-44.032zM911.36 861.184h-301.056l47.616-47.616c11.264-11.264 11.264-28.672 0-39.424-11.264-11.264-28.672-11.264-39.424 0l-90.624 90.624c-8.192 4.608-13.312 13.312-13.312 24.064 0 9.216 4.608 17.92 11.776 23.04l91.136 91.136c5.12 5.12 12.288 8.192 19.968 8.192 7.168 0 13.824-2.56 19.968-8.192 11.264-11.264 11.264-28.672 0-39.424l-47.616-47.616h301.056c15.36 0 28.16-11.776 28.16-27.648s-12.288-27.136-27.648-27.136z"
    />
</svg>
