<svg class="icon" viewBox="0 0 1024 1024" version="1.1" xmlns="http://www.w3.org/2000/svg"
     width="128" height="128">
  <path
    d="M319.68 293.64h-0.09a25 25 0 0 0-24.91 25.09l0.22 63.79a25 25 0 0 0 25 24.91h0.1a25 25 0 0 0 24.91-25.09l-0.22-63.79a25 25 0 0 0-25.01-24.91zM319.68 454.08h-0.09a25 25 0 0 0-24.91 25.09l0.22 63.83a25 25 0 0 0 25 24.91h0.1a25 25 0 0 0 24.91-25.09l-0.23-63.82a25 25 0 0 0-25-24.92zM319.68 614.53h-0.09a25 25 0 0 0-24.91 25.09l0.22 63.79a25 25 0 0 0 25 24.91h0.1a25 25 0 0 0 24.91-25.09l-0.22-63.79a25 25 0 0 0-25.01-24.91zM768 287.18H447.92a32 32 0 0 0 0 64H768a32 32 0 0 0 0-64zM768 669.12H447.92a32 32 0 0 0 0 64H768a32 32 0 0 0 0-64z"
    />
  <path
    d="M927.84 435.72h32v-297c0-24-19.74-43.51-44-43.51H108.17c-24.26 0-44 19.52-44 43.51v297.51l32.88-0.5h0.67c35.22 0 63.88 26.92 63.88 60s-28.66 60-63.88 60H97l-32.88-0.5v328.1c0 24 19.74 43.51 44 43.51h807.71c24.26 0 44-19.52 44-43.51v-327.6h-32c-35.21 0-63.85-26.93-63.85-60s28.66-60 63.86-60.01z m-32 180.06v247H344.89l-0.22-62.94a25 25 0 0 0-25-24.91h-0.09a25 25 0 0 0-24.91 25.09l0.22 62.77H128.17V616.17c55.86-13.28 97.42-62.25 97.42-120.45S184 388.55 128.17 375.27V159.18h166.51l0.22 62.9a25 25 0 0 0 25 24.91h0.1a25 25 0 0 0 24.9-25.09l-0.22-62.73h551.15v216.49c-55 13.83-95.83 62.42-95.83 120.06s40.78 106.23 95.83 120.05z"
    />
</svg>
