<svg class="icon" viewBox="0 0 1024 1024" version="1.1" xmlns="http://www.w3.org/2000/svg"
     width="128" height="128">
  <path
    d="M845.44 183.168L715.904 53.504C687.36 24.96 631.808 1.856 592.128 1.856H263.936a72.96 72.96 0 0 0-72.768 72.832v783.232c0 39.68 32.448 72.768 72.768 72.768h560.384a72.96 72.96 0 0 0 72.768-72.768v-551.04c-0.64-39.68-23.808-95.296-51.584-123.712z m-6.592 675.456a14.72 14.72 0 0 1-14.528 14.528H263.936a14.72 14.72 0 0 1-14.528-14.528V75.264A14.72 14.72 0 0 1 263.936 60.8h328.192c4.608 0 9.216 0.64 14.528 1.344v230.912h230.912c0.64 5.248 1.28 9.92 1.28 14.528v551.04z"
    />
  <path
    d="M211.712 95.168H136.768A72.96 72.96 0 0 0 64 167.936v783.296C64 990.912 96.384 1024 136.768 1024h560.32a72.96 72.96 0 0 0 72.768-72.768s11.264-60.16-25.088-49.6c-9.92-1.984-31.104-2.688-33.088 49.6a14.72 14.72 0 0 1-14.592 14.528H136.768a14.72 14.72 0 0 1-14.528-14.528V167.936a14.72 14.72 0 0 1 14.528-14.528h76.224c47.68-29.824-1.28-58.24-1.28-58.24z"
    />
  <path
    d="M723.968 614.976v138.24h-33.6v-23.168H439.36v23.232h-33.664V614.976h318.272z m-284.608 84.736h251.008v-55.36H439.36v55.36z m-33.664-259.52c-17.024 19.904-35.52 38.4-55.872 55.872l-10.432-33.6c49.28-44.992 84.352-94.272 104.704-147.264l33.152 6.592a469.312 469.312 0 0 1-18.944 41.664h117.44A313.92 313.92 0 0 0 552.512 320l35.072-5.76c7.552 14.72 14.72 31.36 21.312 49.28h137.792v28.416h-144v34.56h123.2v27.008H602.752v33.152h124.096v27.008h-124.16v35.52h151.616v28.928H405.696V440.192zM569.088 549.12v-35.52H438.4v35.52h130.688z m0-62.528v-33.152H438.4v33.152h130.688z m0-60.16v-34.56h-127.36a31.872 31.872 0 0 0-3.328 5.248v29.376h130.688z"
    />
</svg>
