<svg class="icon" viewBox="0 0 1024 1024" version="1.1" xmlns="http://www.w3.org/2000/svg"
     width="128" height="128">
  <path
    d="M249.088 32c9.472 0 18.005333 2.858667 25.6 8.533333l0.298667 0.213334 3.669333 3.157333 36.138667 35.114667 35.882666-34.858667a41.813333 41.813333 0 0 1 24.32-11.818667h0.341334L380.202667 32h66.048c9.514667 0 18.048 2.858667 25.642666 8.533333l0.298667 0.213334 3.669333 3.157333 36.138667 35.114667 35.882667-34.858667a41.813333 41.813333 0 0 1 24.32-11.818667h0.341333l4.864-0.341333h66.048c9.472 0 18.048 2.858667 25.642667 8.533333l0.256 0.213334 3.712 3.157333 36.096 35.114667 35.925333-34.858667a41.813333 41.813333 0 0 1 24.32-11.818667h0.341333l4.821334-0.341333h66.133333c10.88 0 20.394667 3.626667 28.501333 10.922667a41.898667 41.898667 0 0 1 14.08 26.88v0.298666l0.298667 4.736v468.522667h22.826667c11.861333 0 21.973333 4.266667 30.378666 12.672a41.728 41.728 0 0 1 12.544 30.506667v319.573333c0 11.946667-4.181333 22.101333-12.544 30.549333a41.258667 41.258667 0 0 1-30.378666 12.672H117.589333a41.258667 41.258667 0 0 1-30.378666-12.672 41.728 41.728 0 0 1-12.544-30.506666v-319.573334c0-11.946667 4.181333-22.101333 12.544-30.549333a41.258667 41.258667 0 0 1 30.378666-12.672h22.784V75.178667c0-10.922667 3.626667-20.48 10.837334-28.629334a41.514667 41.514667 0 0 1 26.752-14.208l0.341333-0.042666 4.693333-0.298667h66.090667z m94.165333 597.674667H160.512v233.216h702.933333v-233.216h-182.741333l-1.877333 7.082666a165.973333 165.973333 0 0 1-54.997334 81.024 171.648 171.648 0 0 1-103.68 39.594667h-0.085333l-7.936 0.213333H512a171.648 171.648 0 0 1-108.885333-37.418666 165.802667 165.802667 0 0 1-58.112-84.053334l-1.749334-6.442666zM231.68 118.357333h-5.461333l0.042666 425.002667h154.282667c11.861333 0 21.973333 4.266667 30.378667 12.672a41.728 41.728 0 0 1 12.544 30.506667c0 23.253333 8.533333 43.093333 25.685333 59.648 17.322667 16.64 38.272 25.002667 62.848 25.002666 24.576 0 45.525333-8.32 62.848-25.002666 17.109333-16.554667 25.685333-36.394667 25.685333-59.648 0-11.904 4.181333-22.058667 12.544-30.506667a41.258667 41.258667 0 0 1 30.378667-12.672h154.24V118.357333h-5.461333l-53.205334 51.797334a41.557333 41.557333 0 0 1-27.136 12.032 41.472 41.472 0 0 1-28.16-8.32l-0.341333-0.213334-3.797333-3.242666-53.504-52.053334h-31.061334L541.866667 170.154667a41.514667 41.514667 0 0 1-27.178667 12.032 41.472 41.472 0 0 1-28.16-8.32l-0.298667-0.213334-3.84-3.242666-53.504-52.053334h-31.061333L344.661333 170.154667a41.514667 41.514667 0 0 1-27.178666 12.032 41.472 41.472 0 0 1-28.16-8.32l-0.298667-0.213334-3.84-3.242666-53.504-52.053334z m407.765333 260.906667c11.946667 0 22.101333 4.224 30.549334 12.672a41.6 41.6 0 0 1 12.629333 30.506667c0 11.946667-4.224 22.101333-12.629333 30.549333a41.6 41.6 0 0 1-30.549334 12.629333H369.877333a41.6 41.6 0 0 1-30.549333-12.629333 41.6 41.6 0 0 1-12.629333-30.549333c0-11.946667 4.224-22.101333 12.629333-30.506667a41.6 41.6 0 0 1 30.549333-12.672h269.568z m0-127.829333c11.946667 0 22.101333 4.224 30.549334 12.629333a41.6 41.6 0 0 1 12.629333 30.549333c0 11.946667-4.224 22.101333-12.629333 30.549334a41.6 41.6 0 0 1-30.549334 12.629333H369.877333a41.6 41.6 0 0 1-30.549333-12.629333 41.6 41.6 0 0 1-12.629333-30.549334c0-11.946667 4.224-22.101333 12.629333-30.549333a41.6 41.6 0 0 1 30.549333-12.629333h269.568z"
    />
</svg>
