<svg class="icon" viewBox="0 0 1024 1024" version="1.1" xmlns="http://www.w3.org/2000/svg"
     width="128" height="128">
  <path
    d="M898.3 462.2c0-213-173.3-386.3-386.3-386.3S125.7 249.2 125.7 462.2c0 119.9 54.9 227.3 141 298.2v168.9c0 5.5 3.2 10.4 8.1 12.7 1.9 0.9 4 1.3 6 1.3 3.2 0 6.4-1.1 9-3.2l125.4-103.9c31 8 63.4 12.3 96.8 12.3 29.4 0 58-3.3 85.5-9.6l127.8 105.9c2.6 2.1 5.8 3.2 9 3.2 2 0 4.1-0.4 6-1.3 4.9-2.3 8.1-7.3 8.1-12.7V767.5c91.1-70.7 149.9-181.3 149.9-305.3zM294.8 899.4V781.5c27.1 18.5 56.7 33.6 88.1 44.8l-88.1 73.1z m425.4 4.6l-89.5-74.2c31.8-10.3 61.9-24.6 89.5-42.4V904z m11.3-171c-4.4 0.9-8 3.8-9.9 7.7-58.4 44-131 70.2-209.6 70.2-192.3 0-348.7-156.5-348.7-348.7S319.7 113.5 512 113.5c192.3 0 348.7 156.5 348.7 348.7 0 109.2-50.4 206.9-129.2 270.8z"
  />
  <path
    d="M617.8 413.2h55.4V384h-55.4v-87.2h-30.5V384h-74.6v-87.2h-30.9V384H428v29.2h53.8v97.6h-65.5v28.8H685v-28.8h-67.1v-97.6z m-30.4 97.6h-74.6v-97.6h74.6v97.6zM397.6 291.9c-20.9 65.3-53.9 123.3-99.3 173.9l10 31.7c15.6-16.1 30.7-33.9 45.5-53.4v233.6h30.9V397c16.7-28.6 30.4-59.4 41.3-92.2l-28.4-12.9zM575.3 570c33.4 39.8 59.5 75.2 78.4 106.3l26.7-18.3c-19.7-30.9-46.6-65.2-80.5-103l-24.6 15zM418.9 658.4l25.9 18.8c30-30.3 55.7-65.7 77.2-106.3L494.5 558c-20.4 38.3-45.6 71.8-75.6 100.4z"
  />
</svg>
