<svg class="icon" viewBox="0 0 1024 1024" version="1.1" xmlns="http://www.w3.org/2000/svg"
     width="128" height="128">
  <path
    d="M477.866667 452.266667V426.666667h64v25.6c17.066667 4.266667 29.866667 12.8 38.4 21.333333l21.333333-12.8 34.133333 55.466667-21.333333 12.8c0 8.533333 4.266667 17.066667 4.266667 21.333333s0 17.066667-4.266667 21.333333l21.333333 12.8-34.133333 55.466667-21.333333-12.8c-12.8 8.533333-25.6 17.066667-38.4 21.333333v34.133334h-64v-25.6c-17.066667-4.266667-29.866667-12.8-38.4-21.333334l-21.333334 12.8-34.133333-55.466666 21.333333-12.8c0-8.533333-4.266667-17.066667-4.266666-21.333334s0-17.066667 4.266666-21.333333l-21.333333-21.333333 34.133333-55.466667 21.333334 12.8c12.8-8.533333 25.6-17.066667 38.4-21.333333zM170.666667 810.666667H85.333333v-320H42.666667L345.6 213.333333l59.733333 55.466667-166.4 153.6L170.666667 477.866667V725.333333h42.666666v85.333334H170.666667z m686.933333 0H810.666667v-85.333334h46.933333v-247.466666l-64-55.466667-166.4-153.6L682.666667 213.333333l302.933333 277.333334h-42.666667V810.666667h-85.333333z m-85.333333-320V810.666667h-512v-320H213.333333L512 213.333333l302.933333 277.333334h-42.666666z m-426.666667-12.8V725.333333h341.333333v-247.466666L512 324.266667l-166.4 153.6zM512 597.333333c25.6 0 42.666667-17.066667 42.666667-42.666666s-17.066667-42.666667-42.666667-42.666667-42.666667 17.066667-42.666667 42.666667 17.066667 42.666667 42.666667 42.666666z"
  />
</svg>
